<svg width="91" height="26" viewBox="0 0 91 26" fill="none" xmlns="http://www.w3.org/2000/svg">
<path d="M60.3863 0.000494807C58.975 -0.00091222 57.5829 0.31281 56.3208 0.916671C55.0587 1.52053 53.9615 2.39785 53.1167 3.47874C52.2718 4.55963 51.7026 5.81424 51.4543 7.14262C51.2061 8.471 51.2857 9.83646 51.6868 11.1302C52.0879 12.424 52.7994 13.6104 53.7646 14.5948C54.7299 15.5792 55.9222 16.3345 57.2467 16.8005C58.5711 17.2665 59.9911 17.4304 61.3935 17.279C62.7958 17.1277 64.1419 16.6653 65.3243 15.9287V26.0001H69.4503V8.66689C69.4502 6.36837 68.4952 4.16402 66.7954 2.53876C65.0955 0.913493 62.7901 0.00045199 60.3863 0.000488282V0.000494807ZM60.3863 13.389C59.4096 13.389 58.4548 13.1121 57.6426 12.5933C56.8305 12.0745 56.1975 11.3371 55.8237 10.4743C55.4499 9.6115 55.352 8.66208 55.5425 7.74612C55.733 6.83015 56.2033 5.98876 56.8939 5.32836C57.5845 4.66796 58.4644 4.2182 59.4224 4.03596C60.3803 3.85373 61.3732 3.94719 62.2756 4.30454C63.178 4.66189 63.9493 5.26708 64.492 6.04357C65.0346 6.82006 65.3243 7.73298 65.3243 8.66688C65.3243 9.91919 64.8041 11.1202 63.878 12.0058C62.952 12.8913 61.696 13.3889 60.3863 13.389Z" fill="white"/>
<path d="M31.3243 0.000488551C28.9204 0.000437741 26.615 0.913471 24.9152 2.53873C23.2153 4.164 22.2603 6.36835 22.2603 8.66688V26.0001H26.3862V15.9287C27.5685 16.6639 28.9139 17.1251 30.3155 17.2755C31.717 17.426 33.1359 17.2616 34.4593 16.7954C35.7827 16.3292 36.974 15.5741 37.9384 14.5901C38.9028 13.6062 39.6137 12.4206 40.0146 11.1276C40.4154 9.83473 40.4951 8.4702 40.2473 7.14265C39.9995 5.8151 39.431 4.56118 38.5872 3.48068C37.7433 2.40019 36.6473 1.52294 35.3864 0.918763C34.1256 0.314585 32.7346 0.000152022 31.3243 0.000488551H31.3243ZM31.3243 13.389C30.3476 13.389 29.3928 13.1121 28.5807 12.5933C27.7685 12.0745 27.1355 11.3371 26.7617 10.4743C26.3879 9.6115 26.2901 8.66208 26.4806 7.74612C26.6711 6.83015 27.1414 5.98876 27.832 5.32836C28.5226 4.66796 29.4025 4.2182 30.3604 4.03597C31.3183 3.85373 32.3113 3.94719 33.2136 4.30454C34.116 4.66189 34.8873 5.26708 35.43 6.04357C35.9727 6.82006 36.2623 7.73297 36.2624 8.66688C36.2624 9.28697 36.1347 9.90099 35.8866 10.4739C35.6384 11.0468 35.2747 11.5674 34.8162 12.0058C34.3576 12.4443 33.8132 12.7922 33.2141 13.0295C32.615 13.2668 31.9728 13.389 31.3243 13.389Z" fill="white"/>
<path d="M14.0117 1.40506C12.6439 0.553036 11.0609 0.0700318 9.42974 0.00705777C7.79863 -0.0559162 6.18001 0.303477 4.74483 1.04728C3.30965 1.79108 2.11119 2.89168 1.27603 4.23284C0.440863 5.574 0 7.10592 0 8.66682C0 10.2277 0.440863 11.7596 1.27603 13.1008C2.11119 14.442 3.30965 15.5426 4.74483 16.2864C6.18001 17.0302 7.79863 17.3896 9.42974 17.3266C11.0609 17.2636 12.6439 16.7806 14.0117 15.9286V17.3561H18.1372V0.0228118H14.0117V1.40506ZM9.07361 13.3889C8.09712 13.389 7.14254 13.1122 6.33052 12.5936C5.5185 12.075 4.8855 11.3379 4.51154 10.4754C4.13757 9.61287 4.03943 8.66371 4.22951 7.74788C4.41958 6.83205 4.88936 5.99065 5.57944 5.33005C6.26953 4.66945 7.14895 4.2193 8.10653 4.0365C9.06413 3.8537 10.0569 3.94646 10.9594 4.30305C11.8618 4.65964 12.6335 5.26405 13.1768 6.03988C13.7201 6.81572 14.0106 7.72815 14.0117 8.66184V8.67221C14.0102 9.92359 13.4893 11.1232 12.5634 12.0076C11.6375 12.892 10.3823 13.3888 9.07361 13.3889" fill="white"/>
<path d="M86.8579 0.0228118V1.40506C85.4901 0.553036 83.907 0.0700318 82.2759 0.00705777C80.6448 -0.0559162 79.0262 0.303477 77.591 1.04728C76.1558 1.79108 74.9574 2.89168 74.1222 4.23284C73.2871 5.574 72.8462 7.10592 72.8462 8.66682C72.8462 10.2277 73.2871 11.7596 74.1222 13.1008C74.9574 14.442 76.1558 15.5426 77.591 16.2864C79.0262 17.0302 80.6448 17.3896 82.2759 17.3266C83.907 17.2636 85.4901 16.7806 86.8579 15.9286V17.3561H90.9838V0.0228118H86.8579ZM81.9198 13.3889C80.9431 13.389 79.9883 13.1121 79.1762 12.5933C78.364 12.0745 77.731 11.337 77.3572 10.4742C76.9834 9.61143 76.8856 8.66202 77.0761 7.74605C77.2666 6.83008 77.7369 5.9887 78.4275 5.32829C79.1181 4.66789 79.998 4.21814 80.9559 4.0359C81.9138 3.85366 82.9068 3.94712 83.8092 4.30447C84.7115 4.66182 85.4828 5.26701 86.0255 6.0435C86.5682 6.81999 86.8578 7.73291 86.8579 8.66681C86.8579 9.91911 86.3376 11.1201 85.4115 12.0057C84.4855 12.8912 83.2295 13.3888 81.9198 13.3889Z" fill="white"/>
<path d="M47.919 0.0229492H43.7935V17.3562H47.919V0.0229492Z" fill="white"/>
</svg>
