<svg width="102" height="42" viewBox="0 0 102 42" fill="none" xmlns="http://www.w3.org/2000/svg">
<path d="M15.9078 1.46375V14.7134H17.4755V22.1233H12.5669V18.8845H5.26834V22.1233H0V14.6643H1.31066C2.21013 12.9713 2.62132 11.6218 2.82691 10.3214C2.98111 9.63434 3.3409 7.57329 3.3409 3.89284V1.41467H15.9078V1.46375ZM7.52987 6.93534C7.52987 7.89226 7.42707 9.73248 7.01588 11.5236C6.86169 12.2597 6.6047 13.1676 5.96221 14.7134H10.5624V5.51224H7.47847V6.91081H7.52987V6.93534Z" fill="#9FAABF"/>
<path d="M31.5593 14.6155C31.3537 15.5233 30.8397 16.799 29.3748 17.8049C27.8072 18.9089 25.9825 19.1052 24.6205 19.1052C22.95 19.1052 21.1768 18.8108 19.6091 17.3633C18.504 16.3574 17.4761 14.7136 17.4761 12.3338C17.4761 9.68419 18.6839 8.04043 19.8147 7.15721C21.4852 5.80785 23.464 5.61157 24.7233 5.61157C26.0853 5.61157 28.1156 5.90598 29.7346 7.54975C31.5079 9.34072 31.6107 11.5733 31.6107 12.6773V13.4624H22.7444C22.693 14.1003 22.8986 14.7627 23.207 15.2043C23.5154 15.6459 24.0294 15.9894 24.8261 15.9894C25.597 15.9894 26.0339 15.695 26.2395 15.4987C26.4965 15.2534 26.7535 14.8608 26.7535 14.2966L31.5593 14.6155ZM26.5479 10.96C26.5993 10.3711 26.4451 9.70873 26.0853 9.31619C25.6227 8.77644 25.0317 8.72737 24.7233 8.72737C24.3635 8.72737 23.8238 8.77644 23.3098 9.31619C22.95 9.70873 22.693 10.273 22.7444 10.96H26.5479Z" fill="#9FAABF"/>
<path d="M45.1762 5.87781V18.8317H40.2677V9.26347H38.2888C38.186 11.2016 38.1346 12.3547 37.9804 13.3852C37.6721 15.814 37.1581 17.0162 36.053 17.973C35.1792 18.709 34.3312 18.9789 33.1233 18.9789C32.6093 18.9789 32.0696 18.9298 31.5557 18.8317V15.446H31.9669C32.378 15.3969 33.0205 15.2988 33.4831 14.5873C33.8943 13.9494 34.1513 12.9926 34.3055 10.5147C34.4083 9.41068 34.4083 8.18399 34.4083 7.12903V5.87781C34.3826 5.87781 45.1762 5.87781 45.1762 5.87781Z" fill="#9FAABF"/>
<path d="M57.6458 7.37299C59.0593 8.62423 59.8302 10.5133 59.8302 12.3534C59.8302 14.1934 59.0593 16.0826 57.6458 17.3338C56.5921 18.2416 55.0502 19.0757 52.7887 19.0757C50.5014 19.0757 48.9852 18.2416 47.9315 17.3338C46.518 16.0826 45.7471 14.1934 45.7471 12.3534C45.7471 10.5133 46.518 8.62423 47.9315 7.37299C48.9852 6.46523 50.5271 5.63107 52.7887 5.63107C55.0502 5.63107 56.5664 6.4407 57.6458 7.37299ZM54.2021 15.0521C54.5105 14.4143 54.5619 13.6537 54.5619 12.3534C54.5619 11.0531 54.5105 10.2189 54.2021 9.65465C53.8937 9.01677 53.4311 8.7469 52.7887 8.7469C52.1719 8.7469 51.6836 9.0413 51.3752 9.65465C51.0668 10.2925 51.0154 11.0531 51.0154 12.3534C51.0154 13.4574 51.0668 14.3406 51.3752 15.0521C51.6836 15.641 52.0434 15.9599 52.7887 15.9599C53.3797 16.0335 53.8937 15.7391 54.2021 15.0521Z" fill="#9FAABF"/>
<path d="M68.6426 5.87781C69.7476 5.87781 70.9812 5.92688 71.9321 6.61383C72.5488 7.05544 73.1399 7.86506 73.1399 9.09175C73.1399 9.92591 72.8315 10.6374 72.3689 11.1281C71.9578 11.5697 71.3153 11.9132 70.5957 11.9868V12.0358C71.4181 12.0849 72.2661 12.4284 72.8829 12.9436C73.4997 13.5324 73.8338 14.342 73.8338 15.1762C73.8338 16.3783 73.217 17.4578 72.4203 18.0221C71.3153 18.8563 69.8247 18.8562 68.6683 18.8562H60.4702V5.90234H68.6426V5.87781ZM65.533 11.0545H66.4324C66.8436 11.0545 67.3062 11.0054 67.6403 10.7601C67.8459 10.5638 68.1029 10.2694 68.1029 9.75416C68.1029 9.16535 67.7431 8.89548 67.5375 8.74828C67.1263 8.50294 66.7151 8.50294 66.381 8.50294H65.4816V11.0545H65.533ZM65.533 16.3047H66.895C67.3062 16.3047 67.7174 16.2557 68.1029 15.9122C68.3599 15.6668 68.5141 15.2743 68.5141 14.9554C68.5141 14.5137 68.3085 14.0967 67.9487 13.8513C67.6403 13.6551 67.2291 13.5569 66.895 13.5569H65.533V16.3047Z" fill="#9FAABF"/>
<path d="M85.6511 7.37299C87.0646 8.62423 87.8356 10.5133 87.8356 12.3534C87.8356 14.1934 87.0646 16.0826 85.6511 17.3338C84.5975 18.2416 83.0555 19.0757 80.794 19.0757C78.5068 19.0757 76.9905 18.2416 75.9369 17.3338C74.5234 16.0826 73.7524 14.1934 73.7524 12.3534C73.7524 10.5133 74.5234 8.62423 75.9369 7.37299C76.9391 6.46523 78.5325 5.63107 80.794 5.63107C83.0555 5.63107 84.6232 6.4407 85.6511 7.37299ZM82.2075 15.0521C82.5159 14.4143 82.5672 13.6537 82.5672 12.3534C82.5672 11.0531 82.5159 10.2189 82.2075 9.65465C81.8991 9.01677 81.4365 8.7469 80.794 8.7469C80.1772 8.7469 79.6889 9.0413 79.3806 9.65465C79.0722 10.268 79.0208 11.0531 79.0208 12.3534C79.0208 13.4574 79.0722 14.3406 79.3806 15.0521C79.6889 15.641 80.0487 15.9599 80.794 15.9599C81.4365 16.0335 81.8991 15.7391 82.2075 15.0521Z" fill="#9FAABF"/>
<path d="M93.54 5.87798V11.5453C93.54 11.8887 93.54 12.404 93.4372 12.7965C93.7456 12.404 96.6239 6.7612 96.6239 6.7612V5.85344H101.635V18.8073H96.6239V13.4834C96.6239 13.2381 96.5211 12.8456 96.6239 12.5266C96.4183 12.9682 93.54 18.8073 93.54 18.8073H88.3745V5.90251H93.54V5.87798ZM93.797 0.112549C93.797 0.406954 93.8484 0.799497 94.0026 1.0203C94.1568 1.26564 94.4138 1.60911 95.0049 1.60911C95.6217 1.60911 95.8787 1.26564 96.0072 1.0203C96.1613 0.774963 96.2127 0.333353 96.2127 0.112549H99.862C99.8106 1.36377 99.1938 2.19792 98.6542 2.66406C97.3949 3.76808 95.3133 3.76808 95.0049 3.76808C94.6965 3.76808 92.6149 3.71901 91.3556 2.66406C90.7902 2.17338 90.1991 1.36377 90.1477 0.112549H93.797Z" fill="#9FAABF"/>
<path d="M5.26835 23.5177V28.4001C5.62814 28.4001 6.52762 28.2529 6.78461 28.0566C7.1444 27.7131 7.29859 27.1488 7.45279 26.7072C7.65838 25.9221 7.76118 25.3087 7.96678 24.769C8.27517 24.033 8.63496 23.714 9.02044 23.5668H13.672C13.3122 23.9103 13.0038 24.3028 12.7982 24.8671C12.644 25.2597 12.7468 25.1125 12.0787 27.0998C11.8731 27.6886 11.6675 28.351 11.1792 28.8908C10.6909 29.4305 10.1769 29.5287 9.45733 29.6268V29.6759C10.2797 29.8231 10.8194 30.0684 11.4362 30.6818C12.1044 31.3688 12.3356 32.0802 12.5412 32.8163L12.9524 34.3129C13.3636 35.7113 13.4664 36.3983 14.2117 37.1098H8.89195C8.58356 36.9626 8.37796 36.7663 8.17237 36.4228C7.81258 35.785 7.70978 35.0735 7.55559 34.3865C7.1444 32.5955 6.9388 32.252 6.78461 32.0557C6.47622 31.7122 5.47394 31.6632 5.16555 31.6632V37.0362H0V23.4932L5.26835 23.5177Z" fill="#9FAABF"/>
<path d="M23.8547 23.517C25.0111 23.517 26.2961 23.5661 27.247 24.3021C27.9151 24.7437 28.5062 25.6024 28.5062 26.8537C28.5062 27.6878 28.1978 28.4484 27.6838 28.9882C27.2213 29.4298 26.6302 29.8223 25.8592 29.8959V29.945C26.733 29.9941 27.6324 30.3375 28.2492 30.9018C28.866 31.4661 29.2515 32.3494 29.2515 33.2326C29.2515 34.4839 28.6347 35.6124 27.7866 36.1767C26.6302 37.0354 25.1139 37.0354 23.8804 37.0354H15.2197V23.4925H23.8547V23.517ZM20.6166 28.89H21.5674C22.03 28.89 22.4669 28.841 22.8267 28.5465C23.0323 28.3503 23.3407 28.0559 23.3407 27.4916C23.3407 26.8537 22.9809 26.5838 22.7753 26.4366C22.3641 26.1912 21.9015 26.1912 21.5674 26.1912H20.6166V28.89ZM20.6166 34.4102H22.03C22.4412 34.4102 22.9038 34.3612 23.2893 34.0177C23.5463 33.7724 23.7519 33.3798 23.7519 33.0118C23.7519 32.5702 23.5463 32.104 23.1351 31.8587C22.8267 31.6624 22.3641 31.5643 22.03 31.5643H20.6166V34.4102Z" fill="#9FAABF"/>
<path d="M30.5303 27.4919C30.9929 25.7499 32.0466 24.8422 32.8175 24.3515C34.3338 23.3947 36.2612 23.2965 37.7775 23.2965C40.0647 23.2965 42.6346 23.5419 43.8167 25.6763C44.3821 26.6822 44.3821 27.8108 44.3821 28.8658V34.1406C44.3821 34.9257 44.3821 35.7353 44.7933 37.0847H39.6792C39.5764 36.7412 39.4736 36.1769 39.4736 35.1955C38.9082 36.0297 37.7004 37.33 34.9763 37.33C31.3784 37.33 30.1191 35.1465 30.1191 33.3555C30.1191 32.1533 30.6331 30.9266 31.6868 30.117C33.3058 28.8658 36.1841 28.4732 38.2143 28.326L39.2166 28.2279V28.0316C39.2166 27.7863 39.2166 27.1975 38.9082 26.8785C38.7026 26.6822 38.2914 26.486 37.5976 26.486C36.1327 26.486 35.6187 27.271 35.5159 27.9335L30.5303 27.4919ZM38.3428 30.8285C37.0322 31.0248 36.4668 31.3682 36.2612 31.5154C35.6958 31.908 35.4902 32.4723 35.4902 32.8648C35.4902 33.5518 36.0042 34.067 36.9551 34.067C38.9853 34.067 39.1395 32.4232 39.1395 31.4664V30.6813L38.3428 30.8285Z" fill="#9FAABF"/>
<path d="M45.7479 41.3053V23.518H50.6564V25.4562H50.7078C51.0162 24.9165 51.4788 24.4013 51.9671 24.0087C52.738 23.469 53.7403 23.2236 54.8454 23.2236C56.5158 23.2236 57.5695 23.9106 58.3919 25.0637C59.5483 26.6584 59.7025 28.6947 59.7025 30.1422C59.7025 31.8842 59.4455 33.8714 58.2891 35.368C57.1326 36.9137 55.6934 37.3062 54.4856 37.3062C53.7146 37.3062 52.9693 37.1099 52.404 36.8646C51.6844 36.5211 51.2989 36.0795 50.9905 35.6134H50.9391V41.3789H45.7222V41.3053H45.7479ZM51.0162 31.5898C51.0162 32.3258 51.0676 32.8901 51.3246 33.3317C51.4788 33.528 51.7872 34.0677 52.5324 34.0677C53.1492 34.0677 53.6889 33.7733 54.0487 32.9146C54.3057 32.3258 54.3571 31.5652 54.3571 30.2159C54.3571 28.7683 54.2029 28.0814 53.9973 27.5662C53.6375 26.8301 53.0978 26.6093 52.5324 26.6093C52.1213 26.6093 51.7615 26.7565 51.5302 27.0019C51.0676 27.4435 51.0162 28.155 51.0162 28.6457V31.5898Z" fill="#9FAABF"/>
<path d="M72.6781 23.5182V27.0511H68.926V37.0608H63.6063V27.0511H59.8799V23.5182H72.6781Z" fill="#9FAABF"/>
<path d="M73.143 27.1019C73.6056 25.7525 74.5051 24.8202 75.276 24.3541C76.7923 23.3973 78.7197 23.2991 80.236 23.2991C82.5232 23.2991 85.0931 23.5445 86.2752 25.6789C86.8406 26.6848 86.8406 27.8134 86.8406 28.8684V34.1432C86.8406 34.9283 86.8406 35.7379 87.2518 37.0873H82.1377C82.0349 36.7438 81.9321 36.1795 81.9321 35.1981C81.3667 36.0323 80.1589 37.3326 77.4348 37.3326C73.8369 37.3326 72.5776 35.1491 72.5776 33.3581C72.5776 32.1559 73.0916 30.9292 74.1453 30.1196C75.7643 28.8684 78.6426 28.4758 80.6728 28.3286L81.6751 28.2305V28.0342C81.6751 27.7889 81.6751 27.2 81.3667 26.8811C81.1611 26.6848 80.7499 26.4886 80.0561 26.4886C78.5912 26.4886 78.0772 27.2736 77.9744 27.9361L73.143 27.1019ZM80.8013 30.8311C79.4907 31.0274 78.9253 31.3708 78.7197 31.518C78.1543 31.9106 77.9487 32.4749 77.9487 32.8674C77.9487 33.5544 78.4627 34.0696 79.4136 34.0696C81.4438 34.0696 81.598 32.4258 81.598 31.469V30.6839L80.8013 30.8311Z" fill="#9FAABF"/>
<path d="M101.667 23.5204V37.0633H96.6554V27.0534H94.7794C94.6766 29.0897 94.6252 30.2919 94.471 31.3468C94.1626 33.8493 93.5972 35.1742 92.4407 36.18C91.5413 36.9651 90.6161 37.235 89.3568 37.235C88.7915 37.235 88.3032 37.186 87.7378 37.0878V33.5549H88.149C88.6116 33.5058 89.254 33.4077 89.768 32.6471C90.1792 32.0093 90.4362 31.0033 90.6418 28.4027C90.7446 27.2496 90.7446 25.9739 90.7446 24.8698V23.5695H101.692V23.5204H101.667Z" fill="#9FAABF"/>
</svg>
