<svg width="96" height="37" viewBox="0 0 96 37" fill="none" xmlns="http://www.w3.org/2000/svg">
<path d="M90.9705 26.3161L90.1262 32.1039H89.7744L89.296 26.4927L88.3814 0.841553H85.8345L87.9452 36.1662H91.6319L95.1215 0.841553H92.2088L90.9705 26.3161Z" fill="#9FAABF"/>
<path d="M72.5679 0.841553H67.5444V36.1662H72.385C75.1711 36.1662 75.9872 34.5902 75.9872 32.0903V4.60499C75.9872 2.0915 75.34 0.841553 72.5679 0.841553ZM73.173 32.7153C73.173 34.5087 73.2574 34.8076 71.7658 34.8076H70.3587V2.20019H71.7658C73.2574 2.20019 73.173 2.4991 73.173 4.2925V32.7153Z" fill="#9FAABF"/>
<path d="M78.8027 36.1662H84.4313V34.8076H81.617V17.1453H83.5026V15.7866H81.617V2.20019H84.4313V0.841553H78.8027V36.1662Z" fill="#9FAABF"/>
<path d="M2.8143 0.84169L0 36.1667H2.13887L3.18016 25.2975H5.6286L5.95225 36.1667H8.86505L6.82468 0.84169H2.8143ZM3.27866 23.9388L4.12295 7.98822L4.5451 3.69487H5.34717L5.6286 7.98822V23.9388H3.27866Z" fill="#9FAABF"/>
<path d="M37.994 0.841553H35.1797V36.1662H40.8083V34.8076H37.994V0.841553Z" fill="#9FAABF"/>
<path d="M42.2183 36.1662H47.8468V34.8076H45.0325V17.1453H46.904V15.7866H45.0325V2.20019H47.8327V0.841553H42.2183V36.1662Z" fill="#9FAABF"/>
<path d="M20.6978 2.20019H23.0477V36.1662H25.6649V2.20019H27.9163V0.841553H20.6978V2.20019Z" fill="#9FAABF"/>
<path d="M29.0156 33.3668C28.0728 33.3668 27.313 34.0869 27.313 34.9836C27.313 35.8803 28.0728 36.6004 29.0156 36.6004C29.9584 36.6004 30.7182 35.8803 30.7182 34.9836C30.7041 34.0869 29.9443 33.3668 29.0156 33.3668Z" fill="#9FAABF"/>
<path d="M55.8781 0.841553H49.2505V36.1662H54.7946C56.5535 36.1662 57.6792 34.8076 57.6933 33.3267V19.3598C57.6933 17.6615 57.3837 17.2268 56.7505 16.8871C56.7505 16.7648 56.7505 16.2621 56.7505 16.1263C57.5244 15.7458 57.6933 15.3654 57.6933 14.1698V2.98821C57.6933 1.73826 57.2008 0.841553 55.8781 0.841553ZM54.879 33.5848C54.8649 34.5223 54.7946 34.7125 54.0206 34.7125H52.0507L52.0647 17.1453H54.0488C54.8227 17.1453 54.879 17.5528 54.879 19.0745V33.5848ZM54.879 13.9389C54.879 15.4198 54.9212 15.7051 54.1051 15.7866H52.0647L52.0507 2.20019H54.091C54.7383 2.20019 54.879 2.4991 54.879 3.27352V13.9389Z" fill="#9FAABF"/>
<path d="M16.3118 0.841553H11.2603V36.1662H14.0745V19.8625H15.946C16.8043 19.8625 16.8888 20.243 16.8888 21.2212V36.1662H19.703L19.689 22.7293C19.689 20.8 19.7875 20.2973 18.6758 19.6587C18.6758 19.2376 18.6758 18.9794 18.6758 18.8436C19.4216 18.762 19.7171 18.6805 19.7171 16.7648V4.91748C19.703 2.41758 19.0698 0.841553 16.3118 0.841553ZM16.8888 17.1453C16.8888 18.2458 16.9169 18.5039 15.9882 18.5039H14.0745V2.20019L15.2565 2.17302C16.7199 2.20019 16.8888 3.12407 16.8888 4.91748V17.1453Z" fill="#9FAABF"/>
<path d="M60.5103 36.1662H66.1388V34.8076H63.3245V17.1453H65.2101V15.7866H63.3245V2.20019H66.1388V0.841553H60.5103V36.1662Z" fill="#9FAABF"/>
</svg>
