<svg width="128" height="27" viewBox="0 0 128 27" fill="none" xmlns="http://www.w3.org/2000/svg">
<path fill-rule="evenodd" clip-rule="evenodd" d="M13.9061 11.736V25.056L19.9878 27V11.736H23.9V25.056L29.9461 27L33.8939 21.6H29.9817V8.46L23.9355 6.336L19.9878 11.016V8.46L13.9417 6.336L9.99389 11.016V8.46L3.94776 6.336L0 11.736H3.9122V25.056L9.99389 27V11.736H13.9061ZM79.2042 21.6V8.28L73.1225 6.336V24.876L79.1687 27L83.1164 22.32V24.876L89.1625 27L93.1103 21.6H89.1981V8.28L83.1164 6.336V21.6H79.2042ZM124.088 9L118.148 6.336L111.106 9.72L118.148 12.384L108.475 17.1V24.804L114.556 27L118.148 22.284V24.876L124.23 27L128 21.564H124.088V9ZM41.7538 27L48.7246 24.192L41.7538 21.564V17.784L50.8941 13.32L45.7016 6.336L35.6721 11.196V24.372L41.7538 27ZM107.159 21.168L99.761 18.9L106.696 9.972L98.0183 6.336L93.466 12.168L100.899 14.472L93.8216 23.364L102.606 27L107.159 21.168ZM114.556 21.6V16.272L118.148 14.544V21.6H114.556ZM41.7538 9.828L44.8125 14.076L41.7538 15.552V9.828ZM52.459 24.372L58.5407 27L68.5346 22.968V7.02L52.459 0V6.21771L62.4529 10.2137V23.004L58.5407 21.564V10.332L52.459 12.276V24.372Z" fill="#9FAABF"/>
</svg>
