<svg width="87" height="38" viewBox="0 0 87 38" fill="none" xmlns="http://www.w3.org/2000/svg">
<path d="M59.9624 17.6717H72.4067V13.8751H63.9947V10.7979H71.5159V6.97351H63.9947V4.04575H76.9575V17.6717H80.9898V4.04575H86.9996V0.249069H59.9624V17.6717Z" fill="#9FAABF"/>
<path d="M16.7476 17.6717H29.1671V13.8751H20.7798V10.7979H28.301V6.97351H20.7798V4.04575H29.1671V0.249069H16.7476V17.6717Z" fill="#9FAABF"/>
<path d="M29.8589 17.6717H33.8912V8.48714L40.1988 17.6717H45.4419L38.7895 8.26576L45.4419 0.249008H40.174L33.8912 8.44009V0.249008H29.8589V17.6717Z" fill="#9FAABF"/>
<path d="M80.9896 20.428H76.9077V37.8756H80.9896V20.428Z" fill="#9FAABF"/>
<path d="M12.5905 20.403V17.6468C14.124 17.2981 15.5333 16.5537 16.449 15.635L14.2233 12.508C13.3572 13.2773 12.0223 14.0715 9.94278 14.0715C6.42902 14.0715 4.30256 11.8632 4.30256 8.71133C4.30256 5.93024 6.42902 3.82158 9.57044 3.82158C11.6969 3.82158 13.109 4.76522 13.9999 5.50961L16.4242 2.55695C14.9155 1.26464 12.5905 0 9.3498 0C3.48894 0 0 4.22007 0 9.0102C0 14.2237 3.68476 17.7464 8.53341 18.0204V20.403C3.61029 20.4279 0 23.6047 0 28.3201C0 33.0853 3.5634 36.2373 8.53341 36.2373V38H12.5905V36.2373C17.7122 36.2373 21.1736 33.0355 21.1736 28.3201C21.1763 23.4304 17.5881 20.4279 12.5905 20.403ZM8.53341 32.5153C5.41681 32.5402 4.30256 30.2821 4.30256 28.3201C4.30532 26.4827 5.24306 24.0752 8.53341 24.0752V32.5153ZM12.5905 32.5153V24.0752C15.8809 24.0752 16.8462 26.4827 16.8462 28.3201C16.8462 30.3541 15.6602 32.5374 12.5905 32.5153Z" fill="#9FAABF"/>
<path d="M69.2415 25.7633C68.8222 25.7633 68.1024 25.7633 67.3605 25.8629V20.428H63.5268L58.3058 27.5261L52.7152 20.428H48.6333V37.8756H52.6904V27.0778L57.7128 33.3816H58.3058L63.3282 27.1027V37.8756H63.9957C65.1347 37.8756 66.7179 37.9503 68.0776 37.9503C73.7426 37.9503 76.3407 35.6175 76.3407 31.6714C76.3407 28.0961 74.0405 25.7633 69.2415 25.7633ZM68.8691 34.126C68.3506 34.126 67.9038 34.126 67.3605 34.0513V29.6347C67.9783 29.56 68.4747 29.56 68.9188 29.56C70.7998 29.56 72.0354 30.2795 72.0354 31.7683C72.0354 33.3816 70.8991 34.126 68.8691 34.126Z" fill="#9FAABF"/>
<path d="M40.3225 20.378C39.1586 20.378 37.0322 20.4279 35.7469 20.4279H35.0271L25.8235 31.3973V20.4279H21.7939V37.8754H25.3325L34.5582 26.906V37.8754H38.5905V32.7864C39.3572 32.8362 39.8289 32.8362 40.4218 32.8362C45.4443 32.8362 48.0672 30.2544 48.0672 26.5573C48.0644 23.2062 46.1586 20.378 40.3225 20.378ZM40.5432 29.0147C39.7268 29.0147 39.28 28.9898 38.5877 28.8901V24.2494C39.2552 24.2494 39.702 24.1996 40.295 24.1996C42.7938 24.1996 43.7591 24.9938 43.7591 26.5573C43.7591 28.2205 42.4987 29.0147 40.5432 29.0147Z" fill="#9FAABF"/>
<path d="M49.9463 12.533C50.7131 12.6077 51.0854 12.6326 51.7529 12.6326C56.8001 12.6326 59.4202 10.0258 59.4202 6.35368C59.4202 2.58191 57.5144 0.174393 51.6536 0.174393C49.6264 0.174393 46.9538 0.224203 45.9141 0.249109V17.6718H49.9463V12.533ZM49.9463 4.04579C50.2938 4.02088 50.8372 3.97107 51.4798 3.97107C53.9538 3.97107 55.0929 4.69056 55.0929 6.35368C55.0929 8.04171 53.8545 8.81101 51.7777 8.81101C51.0358 8.81101 50.6414 8.7861 49.9463 8.66157V4.04579Z" fill="#9FAABF"/>
</svg>
