<svg width="57" height="54" viewBox="0 0 57 54" fill="none" xmlns="http://www.w3.org/2000/svg">
<g clip-path="url(#clip0)">
<path d="M31.0962 33.7464C31.0962 32.3134 31.0962 31.0403 31.0962 29.733C33.6464 29.733 36.1416 29.733 38.7362 29.733C38.7362 30.1353 38.7362 30.4872 38.7362 30.8374C38.7362 35.1452 38.7202 39.4531 38.7486 43.7592C38.7539 44.648 38.8372 45.5567 39.0341 46.4222C39.7364 49.5216 42.2919 50.9312 45.2447 49.8196C47.9208 48.8105 49.4211 46.7239 49.5772 43.9136C49.7634 40.579 49.6215 37.2265 49.6215 33.75C48.2896 33.75 46.9826 33.75 45.6348 33.75C45.6348 32.344 45.6348 31.0708 45.6348 29.7384C48.3375 29.7384 51.0083 29.7384 53.8476 29.7384C53.8476 36.2604 53.8476 42.7644 53.8476 49.3851C54.995 49.3851 55.9775 49.3851 56.999 49.3851C56.999 50.7426 56.999 51.9817 56.999 53.3123C54.995 53.3123 53.0531 53.3302 51.1112 53.2817C50.9338 53.2781 50.6643 52.8723 50.6146 52.6191C50.4302 51.662 50.3185 50.6923 50.1553 49.5611C49.9336 49.8663 49.7953 50.0369 49.6747 50.2219C47.731 53.2171 44.6967 54.5136 41.2562 53.8151C37.7643 53.1076 35.434 50.7336 34.8115 47.1764C34.6537 46.2696 34.5934 45.3358 34.5863 44.4128C34.5597 41.2129 34.5757 38.0112 34.5757 34.8112C34.5757 34.4898 34.5757 34.1684 34.5757 33.7464C33.3804 33.7464 32.2738 33.7464 31.0962 33.7464Z" fill="#9FAABF"/>
<path d="M52.3552 17.5079C53.4743 18.3734 54.4798 19.1509 55.535 19.968C53.5026 22.692 50.8922 24.3153 47.6078 24.7661C40.8847 25.6855 34.9366 21.3327 33.649 14.5827C32.2533 7.26526 38.0152 0.10046 45.3714 0.00349321C48.6239 -0.0396034 51.6334 0.736135 54.2227 2.80297C54.5312 3.04898 54.7707 3.57153 54.7848 3.97376C54.8469 5.67069 54.8114 7.37121 54.8114 9.13099C53.4619 9.13099 52.185 9.13099 50.8053 9.13099C50.8053 7.96199 50.8354 6.83071 50.784 5.70301C50.7698 5.41032 50.5729 4.97935 50.3388 4.86443C47.3878 3.40273 44.3961 3.22855 41.5834 5.10685C38.7477 7.00309 37.6215 9.86722 37.9159 13.2341C38.221 16.716 39.9412 19.3233 43.2894 20.4277C46.7051 21.5536 49.6809 20.5624 52.1016 17.8796C52.1797 17.7934 52.2346 17.6857 52.3552 17.5079Z" fill="#9FAABF"/>
<path d="M6.43359 4.5897C6.43359 3.19445 6.43359 1.9249 6.43359 0.563766C8.75147 0.563766 11.0179 0.540422 13.2844 0.597884C13.5167 0.603271 13.8448 1.04322 13.9494 1.34669C15.7601 6.61883 17.5424 11.9 19.3318 17.1793C19.4169 17.4325 19.5038 17.6839 19.6616 18.1472C19.839 17.6947 19.9596 17.4163 20.0571 17.1308C21.843 11.882 23.6324 6.6332 25.3952 1.37721C25.592 0.788228 25.8332 0.526057 26.5018 0.544014C28.4774 0.597884 30.4565 0.563766 32.5066 0.563766C32.5066 1.90874 32.5066 3.19984 32.5066 4.5915C31.4887 4.5915 30.5168 4.63639 29.5521 4.57534C28.8977 4.53404 28.6299 4.798 28.4136 5.39238C26.1843 11.4959 23.9143 17.5833 21.6976 23.6905C21.4404 24.4016 21.123 24.6889 20.3781 24.617C19.4488 24.5255 18.2926 24.8487 17.6399 24.3962C17.021 23.967 16.9111 22.7711 16.6025 21.902C14.6783 16.4772 12.7417 11.0596 10.869 5.62043C10.5817 4.78543 10.1897 4.51069 9.35622 4.57354C8.41807 4.64358 7.47105 4.5897 6.43359 4.5897Z" fill="#9FAABF"/>
<path d="M26.5594 36.8132C25.2399 36.8132 23.9808 36.8132 22.6578 36.8132C22.6578 35.6209 22.6578 34.4752 22.6578 33.3314C19.4071 33.299 16.4242 35.9872 16.1706 39.5445C15.9383 42.7839 16.1209 46.0538 16.1209 49.4441C19.4231 49.4441 22.7075 49.4441 26.0273 49.4441C26.0273 50.7891 26.0273 51.9994 26.0273 53.2635C20.0526 53.2635 14.1276 53.2635 8.1316 53.2635C8.1316 52.003 8.1316 50.7657 8.1316 49.4351C9.36946 49.4351 10.5931 49.4351 11.8771 49.4351C11.8771 44.0642 11.8771 38.7849 11.8771 33.3798C10.845 33.3798 9.82168 33.3511 8.80196 33.3906C8.20963 33.414 8.02519 33.1949 8.05002 32.6131C8.08726 31.6901 8.06066 30.7653 8.06066 29.7615C10.4974 29.7615 12.8702 29.7615 15.3566 29.7615C15.4435 31.1478 15.5322 32.5682 15.6386 34.2597C16.9261 32.3348 18.3767 30.9305 20.3612 30.162C22.3705 29.3826 24.4419 29.7346 26.5594 29.634C26.5594 32.0385 26.5594 34.3836 26.5594 36.8132Z" fill="#9FAABF"/>
<path d="M3.97072 53.3373C2.57325 53.3373 1.31234 53.3373 0 53.3373C0 51.9852 0 50.6851 0 49.3239C1.33008 49.3239 2.61582 49.3239 3.97072 49.3239C3.97072 50.6653 3.97072 51.9906 3.97072 53.3373Z" fill="#9FAABF"/>
</g>
<defs>
<clipPath id="clip0">
<rect width="57" height="54" fill="white"/>
</clipPath>
</defs>
</svg>
